<svg xmlns="http://www.w3.org/2000/svg" width="22" height="22" viewBox="0 0 22 22">
  <defs>
    <style>
      .cls-1 {
        fill: #97a3b6;
        fill-rule: evenodd;
      }
    </style>
  </defs>
  <path class="cls-1" d="M51.865,533.309l-1.544.258a8.693,8.693,0,0,1-.62,1.5l0.91,1.278a1.36,1.36,0,0,1-.147,1.751l-1.37,1.369a1.357,1.357,0,0,1-1.751.147l-1.273-.91a8.717,8.717,0,0,1-1.5.621l-0.262,1.544A1.358,1.358,0,0,1,42.968,542h-1.94a1.358,1.358,0,0,1-1.342-1.135l-0.257-1.544a8.718,8.718,0,0,1-1.452-.6l-1.291.919a1.332,1.332,0,0,1-.786.253,1.347,1.347,0,0,1-.961-0.4l-1.369-1.369a1.355,1.355,0,0,1-.147-1.751l0.905-1.26a8.46,8.46,0,0,1-.63-1.493l-1.563-.267A1.357,1.357,0,0,1,31,532.013v-1.934a1.357,1.357,0,0,1,1.135-1.342l1.526-.258a8.543,8.543,0,0,1,.611-1.5l-0.919-1.291a1.361,1.361,0,0,1,.147-1.751l1.374-1.37a1.36,1.36,0,0,1,1.751-.147l1.264,0.91a8.542,8.542,0,0,1,1.494-.629l0.267-1.563A1.358,1.358,0,0,1,40.991,520h1.935a1.358,1.358,0,0,1,1.342,1.135l0.257,1.526a8.636,8.636,0,0,1,1.553.639l1.278-.91a1.332,1.332,0,0,1,.786-0.253,1.351,1.351,0,0,1,.961.4l1.369,1.369a1.355,1.355,0,0,1,.147,1.751l-0.91,1.273a8.707,8.707,0,0,1,.62,1.5l1.544,0.262A1.341,1.341,0,0,1,53,530.033v1.934A1.357,1.357,0,0,1,51.865,533.309ZM42,526.25A4.747,4.747,0,1,0,46.75,531,4.751,4.751,0,0,0,42,526.25Z" transform="translate(-31 -520)"/>
</svg>
