<svg xmlns="http://www.w3.org/2000/svg" width="30" height="20" viewBox="0 0 30 20">
  <defs>
    <style>
      .cls-1 {
        fill: #97a3b6;
        fill-rule: evenodd;
      }
    </style>
  </defs>
  <path id="Forma_1" data-name="Forma 1" class="cls-1" d="M41,22.006c-8.834,0-15,6.131-15,14.93,0,0.236.023,2.438,0.034,2.673v2.385h29.9S56,37.228,56,36.936C56,24.6,47.4,22.006,41,22.006Zm-12.1,17.6c-0.014-.145.005-2.26,0-2.405H32.17V36.149H29.12a1.465,1.465,0,0,0-.23,0,12.11,12.11,0,0,1,2.837-7.26c0.177-.209.4-0.444,0.4-0.444l2.331,2.3,0.685-.685-2.32-2.307a12.029,12.029,0,0,1,7.606-3.134h0.165s0.069,0,.064.041v3.221h0.873V24.624a11.454,11.454,0,0,1,1.287.135A12.015,12.015,0,0,1,49.361,27.8l-2.315,2.307L47.69,30.75l2.224-2.215,0.123-.1,0.1,0.138a11.925,11.925,0,0,1,3.151,7.574H50.015V37.2l3.293,0s0,2.27-.01,2.4ZM45.3,32s-5.2,1.59-6.2,2.58a2.548,2.548,0,0,0,3.611,3.6C43.711,37.179,45.3,32,45.3,32Z" transform="translate(-26 -22)"/>
</svg>
