<svg xmlns="http://www.w3.org/2000/svg" width="24.281" height="24.218" viewBox="0 0 24.281 24.218">
  <defs>
    <style>
      .cls-1 {
        fill: #97a3b6;
        fill-rule: evenodd;
      }
    </style>
  </defs>
  <path id="Forma_1" data-name="Forma 1" class="cls-1" d="M33.093,196.291h-2.7a1.1,1.1,0,0,0-1.1,1.1v10.418a1.1,1.1,0,0,0,1.1,1.1h2.7a1.1,1.1,0,0,0,1.1-1.1V197.387A1.1,1.1,0,0,0,33.093,196.291Zm6.456,3.29h-2.7a1.1,1.1,0,0,0-1.1,1.1v7.128a1.1,1.1,0,0,0,1.1,1.1h2.7a1.1,1.1,0,0,0,1.1-1.1v-7.128A1.1,1.1,0,0,0,39.549,199.581Zm6.456,0H43.3a1.1,1.1,0,0,0-1.1,1.1v7.128a1.1,1.1,0,0,0,1.1,1.1h2.7a1.1,1.1,0,0,0,1.1-1.1v-7.128A1.1,1.1,0,0,0,46.005,199.581Zm6.456-3.29h-2.7a1.1,1.1,0,0,0-1.1,1.1v10.418a1.1,1.1,0,0,0,1.1,1.1h2.7a1.1,1.1,0,0,0,1.1-1.1V197.387A1.1,1.1,0,0,0,52.461,196.291Zm-8.135-9.418a0.336,0.336,0,0,0-.14-0.087l-3.163-.985a2.245,2.245,0,0,0-2.307.515,1.3,1.3,0,0,0-.28.382l-1.408,3.292a0.84,0.84,0,0,0,.073.69,1.366,1.366,0,0,0,.9.707A1.323,1.323,0,0,0,39.243,191a1.2,1.2,0,0,0,.218-0.278l0.474-.871a1.752,1.752,0,0,1,.309-0.414c0.406-.4.6-0.221,0.681-0.142,0.709,0.682,4.421,4.385,4.421,4.385a0.4,0.4,0,0,1-.06.545,0.406,0.406,0,0,1-.548.062L43.7,193.243a0.346,0.346,0,0,0-.486,0,0.338,0.338,0,0,0,0,.483l1.043,1.039a0.437,0.437,0,0,1-.607.6L42.6,194.331a0.347,0.347,0,0,0-.486,0,0.338,0.338,0,0,0,0,.483l1.043,1.039a0.393,0.393,0,0,1-.062.54,0.4,0.4,0,0,1-.548.061l-1.043-1.034a0.339,0.339,0,0,0-.486,0,0.343,0.343,0,0,0,0,.483l1.044,1.034a0.4,0.4,0,0,1-.06.544,0.4,0.4,0,0,1-.548.062l-1.27-1.264a0.784,0.784,0,0,0-1.171-.994,0.722,0.722,0,0,0-.059-1.022,0.736,0.736,0,0,0-1.034-.062,0.725,0.725,0,0,0-.062-1.026,0.735,0.735,0,0,0-1.034-.062,0.726,0.726,0,0,0-.06-1.027,0.746,0.746,0,0,0-.977-0.1l-2.058-2.047a0.349,0.349,0,0,0-.487,0,0.344,0.344,0,0,0,0,.483l2.052,2.039-0.607.606a0.727,0.727,0,0,0,.061,1.027,0.739,0.739,0,0,0,1.033.061,0.726,0.726,0,0,0,.062,1.027,0.738,0.738,0,0,0,1.033.057,0.727,0.727,0,0,0,.06,1.027,0.735,0.735,0,0,0,1.034.061,0.726,0.726,0,0,0,.062,1.027,0.736,0.736,0,0,0,1.031.061l0.644-.639,1.261,1.253a1.082,1.082,0,0,0,1.519-.062,1.149,1.149,0,0,0,.341-0.745,1.18,1.18,0,0,0,1.1-1.087,1.174,1.174,0,0,0,.752-0.339,1.154,1.154,0,0,0,.341-0.749,1.167,1.167,0,0,0,.752-0.34,1.068,1.068,0,0,0,.061-1.51l-0.531-.529,2.183-2.169a0.34,0.34,0,0,0,0-.483Zm5.174,0.762-2.782-2.765a0.69,0.69,0,0,0-.973,0l-0.972.966a0.68,0.68,0,0,0,0,.965l2.785,2.765a0.687,0.687,0,0,0,.973,0L49.5,188.6A0.679,0.679,0,0,0,49.5,187.635Zm-1.46,1.409a0.561,0.561,0,1,1,.564-0.561A0.562,0.562,0,0,1,48.041,189.044Z" transform="translate(-29.281 -184.688)"/>
</svg>
