<svg xmlns="http://www.w3.org/2000/svg" width="24" height="21" viewBox="0 0 24 21">
  <defs>
    <style>
      .cls-1 {
        fill: #97a3b6;
        fill-rule: evenodd;
      }
    </style>
  </defs>
  <path id="Forma_1" data-name="Forma 1" class="cls-1" d="M36.587,438.936a3.08,3.08,0,1,1,3.076,2.937A3.009,3.009,0,0,1,36.587,438.936Zm4.555,4.938a3.088,3.088,0,0,1,.632-1.72,4.108,4.108,0,0,0-.806-0.08h-2.61a4.078,4.078,0,0,0-.8.079,3.09,3.09,0,0,1,.635,1.852A3.506,3.506,0,0,1,41.142,443.874Zm0.521,0.264a3.342,3.342,0,0,1,1.635,2.491,2.938,2.938,0,0,0,1.2.256A2.709,2.709,0,1,0,41.663,444.138Zm-1.857,5.541a2.709,2.709,0,1,0-2.835-2.706A2.772,2.772,0,0,0,39.806,449.679Zm1.2,0.184H38.6a3.554,3.554,0,0,0-3.629,3.465v2.808l0.008,0.044,0.2,0.061a17.262,17.262,0,0,0,4.934.76,10.532,10.532,0,0,0,4.308-.773l0.19-.092h0.02v-2.808A3.553,3.553,0,0,0,41.008,449.863ZM45.7,447.07H43.311a3.272,3.272,0,0,1-1.078,2.323,4.147,4.147,0,0,1,3.08,3.939V454.2a10.152,10.152,0,0,0,3.8-.763l0.189-.092h0.02v-2.809A3.553,3.553,0,0,0,45.7,447.07Zm0.638-5.655a3.341,3.341,0,0,1,1.634,2.491,2.938,2.938,0,0,0,1.2.256A2.709,2.709,0,1,0,46.335,441.415Zm4.034,2.932H47.983a3.269,3.269,0,0,1-1.078,2.323,4.146,4.146,0,0,1,3.08,3.94v0.865a10.155,10.155,0,0,0,3.8-.763l0.189-.092H54v-2.809A3.553,3.553,0,0,0,50.37,444.347Zm-15.537,2.538a2.916,2.916,0,0,0,1.507-.418,3.325,3.325,0,0,1,1.318-2.136c0-.051.008-0.1,0.008-0.152A2.837,2.837,0,1,0,34.833,446.885Zm2.545,2.508a3.274,3.274,0,0,1-1.078-2.311c-0.088-.006-0.176-0.012-0.266-0.012h-2.4A3.554,3.554,0,0,0,30,450.535v2.808l0.007,0.044,0.2,0.06a17.692,17.692,0,0,0,4.087.733v-0.848A4.146,4.146,0,0,1,37.378,449.393Z" transform="translate(-30 -436)"/>
</svg>
