<svg width="25" height="25" viewBox="0 0 25 25" fill="none" xmlns="http://www.w3.org/2000/svg">
<path d="M24.4043 12.3555C24.4043 18.7067 19.2556 23.8555 12.9043 23.8555C6.55302 23.8555 1.4043 18.7067 1.4043 12.3555C1.4043 6.00419 6.55302 0.855469 12.9043 0.855469C19.2556 0.855469 24.4043 6.00419 24.4043 12.3555Z" fill="#97A3B6" stroke="#97A3B6"/>
<path fill-rule="evenodd" clip-rule="evenodd" d="M18.311 9.1136C18.311 9.1136 19.3056 9.03526 19.7047 8.73832C19.7047 8.73832 19.609 9.08015 18.4122 10.1617C18.4122 10.1617 18.8152 15.9974 12.6751 17.4266C12.6751 17.4266 9.56116 18.0897 7.30469 16.3982C7.30469 16.3982 9.66683 16.8172 10.9958 15.3519C10.9958 15.3519 9.28153 15.3692 8.73934 13.6257C8.73934 13.6257 9.38661 13.7651 9.77132 13.5908C9.77132 13.5908 7.82951 13.1894 7.86454 11.0795C7.86454 11.0795 8.38936 11.4633 8.86149 11.3934C8.86149 11.3934 7.11248 9.91081 8.19686 8.06288C8.19686 8.06288 10.5405 10.8254 13.4451 10.6614C13.3945 10.4636 13.3671 10.2564 13.3671 10.0423C13.3671 8.66878 14.4847 7.55469 15.8632 7.55469C16.5596 7.55469 17.1895 7.8393 17.6425 8.29791C17.9745 8.30348 18.6574 8.2445 19.3394 7.75773C19.3394 7.75773 19.3786 8.28998 18.311 9.1136Z" fill="#CAD5E7"/>
</svg>
